<?xml version="1.0" encoding="utf-8" ?><svg xmlns="http://www.w3.org/2000/svg" xmlns:xlink="http://www.w3.org/1999/xlink" width="597" height="627" viewBox="0 0 597 627"><clipPath id="cl_3"><rect width="597" height="627"/></clipPath><g clip-path="url(#cl_3)"><defs><linearGradient id="gradient_0" gradientUnits="userSpaceOnUse" x1="764.54437" y1="568.3587" x2="458.41299" y2="513.22229"><stop offset="0" stop-color="#01006C"/><stop offset="1" stop-color="#336EA6"/></linearGradient></defs><path fill="url(#gradient_0)" transform="translate(-215 -182)" d="M435.722 208.411C448.861 213.693 471.295 225.992 484.405 232.741L558.038 270.398C568.744 275.49 580.159 281.737 590.816 287.224C612.423 298.387 634.128 309.36 655.927 320.143C661.518 322.877 667.082 325.678 672.674 328.405C677.005 330.518 681.635 333.105 686.114 334.798C700.049 340.067 715.239 341.509 729.544 345.629C741.576 349.094 753.715 352.024 765.528 356.193C770.639 358.054 774.746 361.103 779.751 362.877C787.004 365.448 795.044 367.322 802.185 370.105C798.381 377.566 791.317 386.043 786.545 393.114C778.405 405.175 770.232 417.247 762.023 429.262L667.753 565.89L641.462 603.474C638.927 607.141 629.629 620.352 628.336 623.6C625.145 631.612 623.136 649.185 621.719 658.225C617.938 683.161 613.763 708.036 609.194 732.84C603.983 762.196 603.446 772.715 588.299 799.136C557.651 783.78 527.085 768.261 496.602 752.58C484.153 746.178 468.593 738.875 456.808 732.279C453.65 730.91 450.432 729.008 447.314 727.471C407.79 707.982 369.027 686.801 329.179 667.981C318.237 662.813 303.941 660.261 292.379 655.977C289.556 655.424 282.273 652.882 279.386 651.918C270.911 649.09 261.902 646.079 253.643 642.7C253.178 641.747 253.215 641.351 253.232 640.297C245.298 636.908 235.258 634.282 226.592 630.74C230.726 622.617 247.236 602.111 253.263 593.481C265.738 575.615 278.274 557.017 291.085 539.477L370.594 424.567L387.447 400.106C390.821 395.22 399.804 383.059 401.057 377.955C403.787 366.833 405.294 351.515 406.89 339.988C409.83 319.158 412.929 298.351 416.186 277.568C418.102 264.531 420.091 247.386 423.502 235.056C425.133 229.16 432.657 214.635 435.722 208.411ZM483.915 418.764C484.576 413.706 487.244 416.703 488.445 413.663C498.405 409.891 511.811 406.604 522.247 403.278C534.947 399.231 547.9 395.448 560.479 390.949C565.983 388.981 576.882 386.429 581.644 383.8C580.104 383.712 563.288 387.635 560.066 388.335L506.889 399.685C498.596 401.461 486.619 404.528 478.433 405.648L477.931 405.713C464.396 409.549 447.155 411.697 433.19 415.003L431.054 414.275L430.403 412.634C434.212 411.27 444.441 409.415 448.811 408.509L480.746 401.735L562.882 384.287C572.612 382.216 582.062 380.293 591.671 377.748C596.531 376.461 599.637 376.308 604.638 374.274C601.835 374.09 597.381 375.133 594.391 375.429C587.364 376.125 580.327 376.951 573.309 377.74C552.896 380.031 532.456 382.073 511.993 383.865C503.012 384.694 489.53 386.386 480.875 386.514C482.874 385.104 484.816 385.575 488.234 383.614C487.58 383.508 487.861 383.477 487.251 383.666C484.225 384.603 478.734 384.325 475.516 384.031L474.971 383.976C477.082 383.442 483.664 382.996 486.141 382.766L509.565 380.624C531.716 378.634 553.846 376.421 575.952 373.984C589.503 372.529 606.799 371.052 619.874 367.999C605.503 367.909 589.77 368.781 575.289 369.194L482.109 371.826C465.5 372.55 447.019 373.228 430.361 373.404L430.3 372.885C429.416 372.321 429.63 372.462 428.901 371.694C430.118 370.701 430.591 370.702 431.957 369.991C435.195 369.401 444.953 369.357 448.611 369.264L478.39 368.533C486.798 367.934 496.524 367.965 505.137 367.571C535.092 366.203 565.215 366.293 595.178 365.057C599.607 364.875 621.88 364.625 624.715 363.523C615.224 362.504 605.085 362.892 595.495 362.302C567.566 360.584 539.678 358.402 511.721 357.138C506.156 356.886 499.828 356.807 494.339 356.144L493.834 356.079C488.352 355.904 480.231 355.73 474.966 355.033C479.612 354.631 481.493 354.599 486.207 354.754C487.531 354.466 488.722 354.339 489.835 353.599C488.845 352.702 488.921 352.825 487.74 352.138C525.469 353.418 563.434 356.787 601.145 358.817C616.217 359.628 626.427 361.018 641.461 358.227C596.463 353.052 549.686 348.425 504.916 342.266C506.413 341.473 506.678 341.486 507.895 340.324L506.346 338.839L588.316 348.509C606.413 350.671 637.826 355.41 654.942 353.402C623.21 347.927 591.525 342.186 559.89 336.18C542.501 333.028 524.25 329.952 506.968 326.381C507.857 324.911 507.281 325.559 509.012 324.622C510.331 324.975 511.332 325.196 512.655 325.462L512.821 324.578L511.814 323.222C544.135 328.687 576.362 335.567 608.748 341.097C629.075 344.567 643.456 348.248 664.256 349.758C648.588 344.852 628.381 340.057 612.274 335.852C582.401 328.053 551.375 319.191 521.475 311.867C523.324 311.127 524.841 310.259 526.688 309.462C543.546 314.954 568.329 320.104 585.949 324.821L639.022 338.915C645.828 340.699 663.138 345.466 669.615 345.949C668.947 345.101 545.328 302.153 533.87 298.4L534.636 297.843C536.524 296.455 536.736 296.468 539.144 296.148C549.895 299.632 561.087 303.883 571.863 307.629L627.524 326.727C644.263 332.534 662.566 339.284 679.707 343.302C664.277 335.605 645.157 327.698 629.282 321.04C613.498 314.426 597.756 307.715 582.056 300.907C572.596 296.856 558.323 291.25 549.527 286.743L549.653 286.072C546.241 284.068 544.414 284.016 540.482 281.363L540.426 280.828C543.958 280.956 545.316 283.155 549.042 282.808C560.948 287.423 574.391 293.68 586.279 298.766C606.283 307.37 626.353 315.82 646.486 324.116C654.814 327.625 677.267 337.72 685.304 339.959C682.911 336.214 593.342 294.407 582.837 287.354C578.408 284.381 561.424 277.081 555.561 273.257L554.866 272.795C554.776 272.002 554.26 271.393 553.781 270.791L553.97 270.353C555.41 270.483 556.586 270.584 558.038 270.398L484.405 232.741C471.295 225.992 448.861 213.693 435.722 208.411C432.657 214.635 425.133 229.16 423.502 235.056C420.091 247.386 418.102 264.531 416.186 277.568C412.929 298.351 409.83 319.158 406.89 339.988C405.294 351.515 403.787 366.833 401.057 377.955C399.804 383.059 390.821 395.22 387.447 400.106L370.594 424.567L291.085 539.477C278.274 557.017 265.738 575.615 253.263 593.481C247.236 602.111 230.726 622.617 226.592 630.74C235.258 634.282 245.298 636.908 253.232 640.297C253.215 641.351 253.178 641.747 253.643 642.7C261.902 646.079 270.911 649.09 279.386 651.918C282.273 652.882 289.556 655.424 292.379 655.977C303.941 660.261 318.237 662.813 329.179 667.981C369.027 686.801 407.79 707.982 447.314 727.471C450.432 729.008 453.65 730.91 456.808 732.279L458.827 731.765L458.96 731.083L456.933 728.666C463.358 731.472 471.583 735.926 477.927 739.153L513.068 756.962C536.548 768.86 564.287 782.068 586.914 794.817C595.345 776.92 597.611 771.319 602.195 751.683C599.381 756.521 595.34 768.669 593.451 774.109C586.399 771.763 574.52 766.253 567.44 763.207L519.004 742.426L477.821 725.088C472.155 722.701 461.537 718.523 456.389 715.695C456.047 714.715 456.043 714.728 455.386 713.998L456.09 712.229C459.55 713.308 467.1 716.684 470.526 718.131L498.593 729.966C529.609 742.857 560.52 756 591.323 769.393C593.751 762.304 595.92 755.032 598.577 748.049C591.611 746.602 582.628 743.318 575.735 740.972L543.244 729.878C513.248 719.649 481.615 709.502 451.879 698.759C451.331 697.034 451.151 697.534 451.469 696.137L453.583 695.594C500.031 711.987 549.754 726.215 595.542 743.905C598.435 735.456 602.034 723.704 603.384 714.888C602.25 717.623 601.079 720.343 599.87 723.046C586.856 720.473 571.833 716.251 558.834 712.913L502.142 698.505C485.61 694.193 469.057 689.963 452.483 685.817C443.048 683.455 432.351 681.1 423.106 678.369C419.866 678.372 382.668 669.374 379.073 668.179L379.146 667.492C377.18 666.952 370.356 665.265 369.11 664.171C373.125 664.107 378.138 666.104 382.758 666.562L383.053 666.001C392.557 667.862 416.577 672.647 425.03 675.694C427.626 675.966 437.964 678.655 440.969 679.388L477.254 688.49L546.581 705.757C563.592 710.056 580.834 714.811 597.901 718.73C599.208 712.742 600.982 705.238 602.712 699.413L483.364 678.86L444.204 672.45C438.654 671.553 429.474 670.444 424.505 669.168C426.283 667.29 428.742 670.486 433.289 668.159C430.659 668.313 425.501 667.466 423.417 665.837C429.027 666.328 437.049 667.834 442.695 668.747L477.423 674.465L602.509 695.57C602.641 689.242 602.744 684.5 602.562 678.144C587.307 676.067 570.244 674.941 554.761 673.493L477.95 666.232C465.656 665.126 450.267 664.189 438.236 662.563C440.295 662.239 443.86 662.92 445.081 661.09L441.895 660.568L441.628 659.645C444.906 659.54 456.497 660.811 460.569 661.19L498.398 664.675C533.031 667.852 567.969 670.276 602.464 673.657C602.475 667.709 602.445 662.95 602 657.007C582.046 655.97 559.404 655.903 539.25 655.49L441.177 653.399C442.433 653.004 450.629 651.706 452.991 651.192L453.324 650.518C467.605 650.13 486.13 650.99 500.786 651.259L602.116 653.231C602.079 648.094 601.572 642.571 601.476 637.22C565.614 639.336 529.729 641.045 493.828 642.345C479.193 642.926 461.528 644.436 447.265 644.499C448.448 643.634 448.835 643.514 449.525 642.227C448.387 641.459 444.473 641.652 442.359 641.445C447.175 640.748 455.123 640.567 460.051 640.355L485.884 639.122C523.918 637.28 563.703 636.48 601.508 633.48C601.234 628.015 601.189 622.88 601.158 617.419C596.942 617.466 590.34 618.359 586.003 618.824L559.068 621.8L483.221 631.054C470.832 632.625 457.866 634.603 445.533 635.86L445.857 635.086C447.764 634.83 452.552 633.43 453.992 632.111L453.983 631.345C455.777 630.784 465.425 629.635 467.556 629.366L495.2 625.912C530.523 621.41 565.887 617.227 601.286 613.362C601.01 607.649 600.857 601.93 600.824 596.211C577.72 599.992 552.492 605.51 529.527 610.365C503.641 615.906 477.719 621.282 451.764 626.492L454.003 624.72C454.262 623.363 454.304 624.049 453.486 622.66C488.262 616.099 523.406 607.695 558.224 600.969C572.239 598.261 586.718 595.038 600.783 592.85C600.392 587.051 600.103 581.247 599.917 575.439C552.007 587.658 502.177 604.072 454.237 617.396C450.559 614.459 449.674 617.944 445.73 616.684C450.05 614.956 454.694 614.257 458.856 612.408L460.028 613.24C461.293 612.88 460.763 613.214 461.627 612.258C466.792 608.963 512.534 596.823 521.301 594.276L570.416 579.912C579.083 577.407 591.096 573.614 599.765 572.122C595.213 551.529 591.366 527.938 587.254 506.979L564.804 393.442L483.915 418.764ZM649.769 368.226C647.898 389.211 613.351 567.302 617.264 574.794L617.608 573.886C629.034 525.402 640.706 476.976 652.623 428.61C657.472 408.805 662.385 388.967 667.407 369.205C667.796 367.677 668.091 366.52 667.64 365.083L666.57 365.134C660.99 366.23 655.392 367.394 649.769 368.226ZM628.009 374.503C627.405 395.96 623.953 423.666 621.859 445.496C619.363 473.269 617.117 501.065 615.122 528.88C614.622 535.444 611.705 562.127 613.334 566.218C614.18 558.795 615.746 551.509 616.713 544.113C618.8 528.152 621.723 512.322 624.512 496.468L638.316 416.585C639.388 410.421 646.46 373.497 645.942 369.602C639.915 371.473 634 372.761 628.009 374.503ZM746.275 358.198C735.987 356.597 731.936 356.674 721.476 357.148C717.275 370.005 708.505 389.069 703.13 402.581L654.373 525.229L640.557 560.073C637.361 568.024 632.357 580.143 629.824 588.181C628.857 589.956 624.975 600.905 624.318 603.028C627.458 597.453 630.955 591.288 633.674 585.521C650.616 553.921 667.862 516.092 683.407 483.541C703.426 441.297 724.387 399.506 746.275 358.198ZM604.374 536.97C604.987 531.237 604.617 524.879 604.572 519.054L604.483 489.442C604.589 454.05 604.53 415.722 605.456 380.63L587.813 385.665C589.374 396.919 590.341 409.926 591.435 421.318L598.715 500.645C599.682 510.585 600.935 528.723 602.6 538.125C602.396 540.223 603.522 550.368 603.775 553.05C604.2 547.701 604.4 542.336 604.374 536.97ZM620.48 584.868C626.349 567.078 631.738 549.275 637.462 531.452C649.145 495.508 660.622 459.496 671.894 423.421C676.012 410.313 680.243 397.24 684.586 384.205C686.8 377.495 690.13 368.358 691.748 361.666L691.463 361.18L690.902 361.216C684.777 362.03 678.661 362.91 672.555 363.855C666.91 387.655 617.659 578.068 620.251 585.226L620.48 584.868ZM598.118 535.117C597.9 519.669 594.965 496.781 593.589 481.099C590.837 449.746 588.293 417.93 585.103 386.644C579.655 388.549 573.707 390.359 568.183 392.145C571.269 411.71 576.213 432.126 579.939 451.668C585.177 479.14 590.434 506.717 596.126 534.091C596.997 538.936 598.004 543.757 599.145 548.546C599.087 546.051 598.84 537.283 598.118 535.117ZM623.875 591.902L714.87 365.267C715.573 363.501 717.218 359.838 717.104 358.144L716.311 358.259C710.286 358.801 702.121 359.866 696.322 360.117C689.286 384.211 621.166 587.634 623.532 592.314L623.875 591.902ZM749.794 358.951C717.586 421.804 686.25 485.1 655.796 548.821C647.77 564.911 639.863 581.06 632.076 597.267C631.008 599.499 626.804 607.106 626.42 608.595L626.787 609.133C629.285 607.666 628.526 605.523 629.94 603.569C631.911 600.845 633.645 598.229 635.428 595.369L771.93 365.154C764.563 363.045 757.184 360.978 749.794 358.951ZM608.722 553.128C611.168 541.706 624.607 375.366 624.499 375.131C619.347 376.583 614.175 377.961 608.984 379.265C607.585 416.37 607.621 456.566 607.814 493.724L608.196 532C608.293 538.386 608.189 546.881 608.722 553.128ZM775.203 365.7C770.836 374.238 763.653 385.384 758.609 393.797C746.836 413.457 734.933 433.038 722.901 452.541C695.321 498.147 668.472 544.191 642.366 590.657C640.007 594.893 629.854 611.22 629.479 614.191C632.35 610.335 635.16 606.433 637.909 602.488L736.743 459.833L771.651 408.41C779.149 397.319 788.534 382.925 796.817 372.454C789.558 369.928 782.583 367.871 775.203 365.7Z"/><path fill="#2F76AF" transform="translate(-215 -182)" d="M431.957 369.991C435.195 369.401 444.953 369.357 448.611 369.264L478.39 368.533C482.247 370.087 486.154 368.323 489.337 369.689L489.342 369.336L489.556 369.616C486.407 370.587 485.873 370.737 482.542 370.895C482.094 371.604 482.182 371.273 482.109 371.826C465.5 372.55 447.019 373.228 430.361 373.404L430.3 372.885C429.416 372.321 429.63 372.462 428.901 371.694C430.118 370.701 430.591 370.702 431.957 369.991Z"/><path fill="#2F76AF" transform="translate(-215 -182)" d="M430.403 412.634C434.212 411.27 444.441 409.415 448.811 408.509L480.746 401.735L482.791 402.86L482.737 403.578C481.053 404.205 479.385 404.698 477.931 405.713C464.396 409.549 447.155 411.697 433.19 415.003L431.054 414.275L430.403 412.634Z"/><path fill="#FAFAFB" fill-opacity="0.011764706" transform="translate(-215 -182)" d="M428.223 232.91L429.019 233.295C427.753 238.186 425.211 248.441 423.11 252.669C424.183 245.617 425.371 239.451 428.223 232.91Z"/><path fill="#FAFAFB" fill-opacity="0.054901961" transform="translate(-215 -182)" d="M426.309 258.991C425.522 261.608 424.285 266.446 423.033 268.563C423.106 264.594 424.293 262.074 425.735 258.442L426.309 258.991Z"/><path fill="#3CBFE7" fill-opacity="0.10588235" transform="translate(-215 -182)" d="M373.814 653.438C372.165 653.41 372.221 653.749 371.423 653.031C374.551 652.312 375.995 652.455 379.137 652.537C377.595 652.741 375.199 652.975 373.814 653.438Z"/><defs><linearGradient id="gradient_1" gradientUnits="userSpaceOnUse" x1="512.74982" y1="483.48099" x2="309.55548" y2="443.83545"><stop offset="0" stop-color="#2E5D9E"/><stop offset="1" stop-color="#31BCEE"/></linearGradient></defs><path fill="url(#gradient_1)" transform="translate(-215 -182)" d="M435.722 208.411C448.861 213.693 471.295 225.992 484.405 232.741L558.038 270.398C556.586 270.584 555.41 270.483 553.97 270.353L553.781 270.791C554.26 271.393 554.776 272.002 554.866 272.795C551.267 271.436 543.551 267.257 539.833 265.36L511.739 251.013C488.202 239.014 460.19 225.553 437.403 212.98C434.275 219.543 431 226.207 428.223 232.91C425.371 239.451 424.183 245.617 423.11 252.669C425.211 248.441 427.753 238.186 429.019 233.295C433.265 234.083 442.068 237.912 446.421 239.697L472.27 250.379L525.163 272.495C532.515 275.629 542.092 279.419 549.042 282.808C545.316 283.155 543.958 280.956 540.426 280.828L540.482 281.363C544.414 284.016 546.241 284.068 549.653 286.072L549.527 286.743C541.647 284.052 532.15 279.784 524.425 276.309C493.827 262.546 461.608 251.695 431.02 238.079C429.356 244.591 427.837 252.196 425.735 258.442C424.293 262.074 423.106 264.594 423.033 268.563C424.285 266.446 425.522 261.608 426.309 258.991C441.159 262.96 457.495 268.593 472.126 273.457C494.519 280.861 516.859 288.425 539.144 296.148C536.736 296.468 536.524 296.455 534.636 297.843L533.87 298.4C508.867 289.227 481.922 281.622 456.696 272.698C447.604 269.482 436.473 266.788 427.794 263.502C427.091 267.364 423.105 286.661 423.689 289.266C424.596 287.492 424.788 286.18 425.252 284.224C432.303 284.717 451.395 289.944 458.765 291.804C481.456 297.498 504.097 303.384 526.688 309.462C524.841 310.259 523.324 311.127 521.475 311.867C490.159 303.759 458.784 295.883 427.351 288.242C426.025 293.815 424.072 301.643 423.763 307.225C453.075 312.768 482.426 318.101 511.814 323.222L512.821 324.578L512.655 325.462C511.332 325.196 510.331 324.975 509.012 324.622C507.281 325.559 507.857 324.911 506.968 326.381C479.668 322.12 452.09 315.706 424.869 311.711C424.834 317.724 424.9 323.737 425.067 329.748C452.183 332.567 479.277 335.597 506.346 338.839L507.895 340.324C506.678 341.486 506.413 341.473 504.916 342.266L451.568 336.321C443.381 335.377 433.269 333.862 425.184 333.264C425.777 338.573 425.36 343.742 425.903 348.98C446.391 349.951 467.334 351.302 487.74 352.138C488.921 352.825 488.845 352.702 489.835 353.599C488.722 354.339 487.531 354.466 486.207 354.754C481.493 354.599 479.612 354.631 474.966 355.033C458.986 354.462 441.896 353.623 425.927 352.639C425.949 358.466 426.147 364.291 426.522 370.106C427.9 370.067 430.699 369.901 431.957 369.991C430.591 370.702 430.118 370.701 428.901 371.694C429.63 372.462 429.416 372.321 430.3 372.885L430.361 373.404L426.963 373.635C426.09 375.247 426.862 385.063 427.004 387.614C442.473 386.701 459.844 384.458 474.971 383.976L475.516 384.031C478.734 384.325 484.225 384.603 487.251 383.666C487.861 383.477 487.58 383.508 488.234 383.614C484.816 385.575 482.874 385.104 480.875 386.514C469.215 388.554 453.084 388.626 440.938 390.113C436.443 390.664 431.518 390.673 427.001 391.625L427.066 392.311C427.55 397.726 426.86 407.94 428.35 412.228C429.554 412.741 429.086 412.626 430.403 412.634L431.054 414.275L433.19 415.003L427.847 416.122C428.263 421.558 428.721 425.997 429.737 431.372C443.634 426.431 459.013 423.156 473.033 418.295C477.693 416.68 483.694 414.766 488.445 413.663C487.244 416.703 484.576 413.706 483.915 418.764C466.63 424.068 448.078 430.111 430.758 434.926C437.039 476.626 445.841 517.669 452.672 559.269C455.542 576.747 459.565 594.717 461.627 612.258C460.763 613.214 461.293 612.88 460.028 613.24L458.856 612.408C455.668 598.872 453.046 581.14 450.593 567.189C446.305 542.161 441.73 517.183 436.867 492.26C435.819 486.894 434.828 481.518 433.896 476.131C433.518 473.811 432.449 465.558 431.73 463.814C431.195 468.124 434.165 493.665 434.616 498.974L440.741 576.024L442.965 603.294C443.209 606.308 443.187 614.745 444.583 616.817L445.73 616.684C449.674 617.944 450.559 614.459 454.237 617.396C446.627 619.866 438.975 622.202 431.283 624.403C423.982 626.454 414.787 628.761 407.774 631.277L407.694 631.606C411.839 631.543 419.079 629.918 423.392 629.065C433.455 627.082 443.488 624.946 453.486 622.66C454.304 624.049 454.262 623.363 454.003 624.72L451.764 626.492L423.294 632.749C418.255 633.813 403.814 636.542 399.868 638.383C416.47 637.402 437.497 632.424 453.983 631.345L453.992 632.111C452.552 633.43 447.764 634.83 445.857 635.086L445.533 635.86L445.121 635.958C428.126 639.827 402.699 639.79 386.239 644.189C388.624 645.232 434.86 640.877 442.359 641.445C444.473 641.652 448.387 641.459 449.525 642.227C448.835 643.514 448.448 643.634 447.265 644.499C432.685 645.344 418.101 646.116 403.513 646.814C393.987 647.275 383.075 647.335 373.808 648.932C391.109 649.711 408.997 649.467 426.359 649.973C435.362 650.235 444.245 649.901 453.324 650.518L452.991 651.192C450.629 651.706 442.433 653.004 441.177 653.399C421.175 654.068 399.593 652.196 379.137 652.537C375.995 652.455 374.551 652.312 371.423 653.031C372.221 653.749 372.165 653.41 373.814 653.438C396.04 655.274 419.501 657.214 441.628 659.645L441.895 660.568L445.081 661.09C443.86 662.92 440.295 662.239 438.236 662.563C414.752 661.563 387.683 656.216 364.218 656.407C377.455 659.501 395.118 660.754 408.874 663.283C410.915 663.658 422.001 665.196 423.417 665.837C425.501 667.466 430.659 668.313 433.289 668.159C428.742 670.486 426.283 667.29 424.505 669.168C403.607 667.454 376.494 659.911 355.829 659.3C364.571 661.928 374.154 663.58 383.053 666.001L382.758 666.562C378.138 666.104 373.125 664.107 369.11 664.171C370.356 665.265 377.18 666.952 379.146 667.492L379.073 668.179C373.075 666.93 355.093 662.073 350.225 663.079C350.406 663.31 365.525 667.608 367.201 668.089C387.269 673.888 407.216 680.097 427.031 686.712C435.561 689.514 445.115 693.031 453.583 695.594L451.469 696.137C451.151 697.534 451.331 697.034 451.879 698.759C440.716 695.19 349.477 664.712 345.234 665.837C348.08 667.481 354.008 669.432 357.287 670.683C363.652 673.156 370 675.675 376.328 678.241C393.116 685.106 409.833 692.143 426.476 699.351C435.69 703.292 447.196 707.871 456.09 712.229L455.386 713.998C456.043 714.728 456.047 714.715 456.389 715.695C445.164 711.416 432.809 705.814 421.626 701.03C404.695 693.76 387.688 686.666 370.609 679.75C360.265 675.54 345.632 669.246 335.219 666.296C338.434 668.451 343.998 671.055 347.638 672.894L369.504 683.923L431.259 715.443C434.251 716.952 455.328 727.368 456.933 728.666L458.96 731.083L458.827 731.765L456.808 732.279C453.65 730.91 450.432 729.008 447.314 727.471C407.79 707.982 369.027 686.801 329.179 667.981C318.237 662.813 303.941 660.261 292.379 655.977C289.556 655.424 282.273 652.882 279.386 651.918C270.911 649.09 261.902 646.079 253.643 642.7C253.178 641.747 253.215 641.351 253.232 640.297C245.298 636.908 235.258 634.282 226.592 630.74C230.726 622.617 247.236 602.111 253.263 593.481C265.738 575.615 278.274 557.017 291.085 539.477L370.594 424.567L387.447 400.106C390.821 395.22 399.804 383.059 401.057 377.955C403.787 366.833 405.294 351.515 406.89 339.988C409.83 319.158 412.929 298.351 416.186 277.568C418.102 264.531 420.091 247.386 423.502 235.056C425.133 229.16 432.657 214.635 435.722 208.411ZM231.135 629.36C239.12 631.532 248.032 633.994 255.873 636.594L284.714 589.067C286.922 585.353 296.769 567.847 298.665 565.538C300.561 561.627 304.467 555.396 306.79 551.446L322.568 524.536C340.891 492.982 361.271 458.578 378.404 426.63C380.087 424.487 399.714 389.45 399.991 388.227C398.427 389.871 395.093 395.103 393.604 397.401C388.729 404.923 381.156 414.451 376.817 422.125C372.698 427.213 368.726 433.153 365.042 438.598C342.984 471.2 320.722 503.647 298.033 535.814C296.138 538.501 294.204 541.338 292.172 543.906C286.152 553.177 278.723 563.207 272.326 572.336C258.924 591.579 245.191 610.59 231.135 629.36ZM259.275 637.619C267.263 639.623 275.264 641.572 283.279 643.467C290.2 629.247 297.604 613.947 304.991 600.023C309.806 589.712 315.083 579.557 319.98 569.269L378.884 443.93L392.22 415.142C394.223 410.848 398.951 401.244 399.941 397.208L399.449 397.29C396.48 402.071 393.282 408.154 390.35 413.193C382.185 427.146 374.141 441.168 366.219 455.259L327.383 522.942C320.565 535.056 313.656 547.12 306.658 559.131C304.296 563.13 300.366 570.161 297.843 573.759L297.285 574.544C295.092 579.494 290.468 586.239 287.698 591.215C278.956 606.919 268.293 622.229 259.275 637.619ZM359.719 638.815L395.191 487.374C399.793 467.153 404.677 446.882 408.288 426.438C408.712 424.039 408.697 421.124 408.704 418.678L408.212 417.916C401.209 442.397 394.03 466.826 386.676 491.204L341.867 635.658C341.374 637.304 339.945 641.09 340.519 642.274L340.592 642.319L359.719 638.815ZM404.53 627.464L413.349 510.877C414.861 493.693 415.996 476.478 416.752 459.244C417 453.263 417.504 439.132 416.691 433.368C415.846 435.835 413.91 451.429 413.361 455.234L405.11 513.308L393.792 589.259C391.754 602.48 388.844 618.432 387.459 631.547L387.854 632.233C393.618 630.416 398.949 629.154 404.53 627.464ZM438.243 618.764L440.238 618.119C440.818 616.724 429.297 466.846 426.09 457.329C425.282 472.495 426.429 492.018 426.481 507.801L426.761 621.967C430.522 620.916 434.483 619.731 438.243 618.764ZM407.485 626.935C412.531 625.293 418.337 623.913 423.519 622.563C422.812 584.638 424.304 546.05 423.37 508.036C422.98 492.173 423.275 476.179 421.927 460.335C422.076 457.333 421.927 456.289 421.547 453.364C421.548 451.828 421.817 449.935 420.971 448.83C420.224 453.979 420.583 460.002 419.989 465.495C417.816 499.167 414.93 533.123 412.419 566.806L409.654 603.637C409.119 610.638 408.558 620.168 407.485 626.935ZM336.198 643.399C337.756 633.782 345.574 613.175 347.955 604.944C355.239 579.763 407.808 418.342 405.643 407.344C400.65 421.289 394.923 435.436 389.719 449.396C370.624 500.761 351.065 551.952 331.044 602.964C329.112 607.935 314.319 643.172 314.696 644.79C321.179 644.25 329.794 643.478 336.198 643.399ZM383.512 633.338C386.497 611.933 415.044 435.339 412.202 427.329C409.49 437.442 407.81 448.328 405.361 458.64L378.156 576.925C373.985 595.04 369.162 612.996 365.044 631.123C364.523 633.414 363.83 635.711 363.717 638.065C370.293 636.482 376.922 634.838 383.512 633.338ZM404.345 399.815C400.955 404.658 396.79 414.092 394.049 419.787C388.038 432.106 382.207 444.513 376.557 457.002C364.963 482.211 352.544 507.002 341.019 532.18C333.508 548.886 325.81 565.508 317.926 582.041C314.534 589.081 310.742 597.358 306.922 604.093C305.284 607.949 303.091 612.284 301.074 615.996C296.305 624.77 292.112 634.47 287.064 643.031C287.669 643.792 287.282 643.546 288.221 643.776C295.724 643.063 302.522 643.915 309.983 644.607C324.047 611.512 337.421 578.128 350.097 544.477C359.458 520.24 368.738 496.704 377.76 472.328L392.334 433.185C396.732 421.637 400.955 411.754 404.345 399.815Z"/><path transform="translate(-215 -182)" d="M316.489 516.287C318.172 516.432 318.86 516.401 320.457 517.04L320.428 517.786L318.688 519.381C317.388 519.417 317.322 519.53 316.163 519.011C317.696 517.986 317.5 518.548 317.942 517.279L316.489 516.287Z"/><path fill="#ADACAD" fill-opacity="0.011764706" transform="translate(-215 -182)" d="M376.817 422.125C381.156 414.451 388.729 404.923 393.604 397.401C395.093 395.103 398.427 389.871 399.991 388.227C399.714 389.45 380.087 424.487 378.404 426.63C376.996 424.278 377.741 423.869 376.817 422.125Z"/><path fill="#3CBFE7" transform="translate(-215 -182)" d="M291.085 539.477L290.791 541.475L291.188 541.773C292.246 540.836 293.038 540.1 294.036 539.101L293.657 539.763C292.793 541.3 292.077 542.156 292.172 543.906C286.152 553.177 278.723 563.207 272.326 572.336C258.924 591.579 245.191 610.59 231.135 629.36C239.12 631.532 248.032 633.994 255.873 636.594L284.714 589.067C286.922 585.353 296.769 567.847 298.665 565.538C299.561 564.98 300.403 564.421 301.192 563.718L302.379 563.653L302.104 563.804L302.333 564.333C300.346 567.501 297.819 570.887 297.285 574.544C295.092 579.494 290.468 586.239 287.698 591.215C278.956 606.919 268.293 622.229 259.275 637.619C267.263 639.623 275.264 641.572 283.279 643.467C290.2 629.247 297.604 613.947 304.991 600.023C305.812 601.586 306.09 602.719 306.922 604.093C305.284 607.949 303.091 612.284 301.074 615.996C296.305 624.77 292.112 634.47 287.064 643.031C287.669 643.792 287.282 643.546 288.221 643.776C290.002 644.004 293.274 643.987 294.229 644.859C294.261 646.458 294.278 646.161 294.095 647.549C293.807 649.725 295.963 651.456 295.938 653.959C294.533 654.749 294.321 654.783 292.84 655.255L292.379 655.977C289.556 655.424 282.273 652.882 279.386 651.918C270.911 649.09 261.902 646.079 253.643 642.7C253.178 641.747 253.215 641.351 253.232 640.297C245.298 636.908 235.258 634.282 226.592 630.74C230.726 622.617 247.236 602.111 253.263 593.481C265.738 575.615 278.274 557.017 291.085 539.477Z"/><path fill="#FAFAFB" fill-opacity="0.0078431377" transform="translate(-215 -182)" d="M416.691 433.368C417.504 439.132 417 453.263 416.752 459.244C415.996 476.478 414.861 493.693 413.349 510.877L404.53 627.464C398.949 629.154 393.618 630.416 387.854 632.233L387.459 631.547C388.844 618.432 391.754 602.48 393.792 589.259L405.11 513.308L413.361 455.234C413.91 451.429 415.846 435.835 416.691 433.368Z"/><path fill="#FAFAFB" fill-opacity="0.015686275" transform="translate(-215 -182)" d="M420.971 448.83C421.22 451.434 421.271 453.206 421.291 455.792L421.547 453.364C421.927 456.289 422.076 457.333 421.927 460.335C421.598 462.056 421.587 466.344 420.928 467.292C420.242 466.344 420.43 466.671 419.989 465.495C420.583 460.002 420.224 453.979 420.971 448.83Z"/><path fill="#2F76AF" transform="translate(-215 -182)" d="M379.073 668.179L379.146 667.492C377.18 666.952 370.356 665.265 369.11 664.171C373.125 664.107 378.138 666.104 382.758 666.562L383.053 666.001C392.557 667.862 416.577 672.647 425.03 675.694L425.376 676.559C429.708 677.678 435.619 679.388 439.902 680.136L440.362 681.085L439.762 681.606C435.439 680.949 425.881 677.345 423.106 678.369C419.866 678.372 382.668 669.374 379.073 668.179Z"/><path fill="#2F76AF" transform="translate(-215 -182)" d="M486.207 354.754C489.775 354.735 490.951 354.797 494.488 355.378L494.791 355.017C495.28 354.448 495.085 354.667 495.768 353.977C497.123 354.198 497.145 354.44 498.217 355.383L500.086 355.65C497.934 355.754 495.978 355.865 493.834 356.079C488.352 355.904 480.231 355.73 474.966 355.033C479.612 354.631 481.493 354.599 486.207 354.754Z"/><path transform="translate(-215 -182)" d="M680.537 531.731L682.14 533.081L682.342 532.874L682.374 533.882C681.721 533.998 680.86 534.469 680.044 534.693C679.674 533.399 680.018 533.288 680.537 531.731Z"/><defs><linearGradient id="gradient_2" gradientUnits="userSpaceOnUse" x1="628.9715" y1="588.51587" x2="631.31256" y2="589.86011"><stop offset="0" stop-color="white" stop-opacity="0"/><stop offset="1" stop-color="#F6F5FA" stop-opacity="0.050980393"/></linearGradient></defs><path fill="url(#gradient_2)" transform="translate(-215 -182)" d="M629.824 588.181C631.679 586.569 632.144 584.224 633.547 582.196L633.558 581.697L633.96 582.5C633.711 583.583 633.68 584.41 633.674 585.521C630.955 591.288 627.458 597.453 624.318 603.028C624.975 600.905 628.857 589.956 629.824 588.181Z"/><path fill="#FAFAFB" fill-opacity="0.011764706" transform="translate(-215 -182)" d="M596.126 534.091L596.636 531.657L597.016 531.536L598.118 535.117C598.84 537.283 599.087 546.051 599.145 548.546C598.004 543.757 596.997 538.936 596.126 534.091Z"/><path fill="#FAFAFB" fill-opacity="0.011764706" transform="translate(-215 -182)" d="M602.6 538.125C602.796 537.193 603.012 536.314 603.242 535.389L604.374 536.97C604.4 542.336 604.2 547.701 603.775 553.05C603.522 550.368 602.396 540.223 602.6 538.125Z"/></g></svg>