<?xml version="1.0" standalone="no"?><!DOCTYPE svg PUBLIC "-//W3C//DTD SVG 1.1//EN" "http://www.w3.org/Graphics/SVG/1.1/DTD/svg11.dtd"><svg t="1752056954479" class="icon" viewBox="0 0 1183 1024" version="1.1" xmlns="http://www.w3.org/2000/svg" p-id="2387" xmlns:xlink="http://www.w3.org/1999/xlink" width="55.453125" height="48"><path d="M259.196963 83.490748C385.288282 178.152153 520.913817 370.086063 570.708662 473.088957c49.798638-102.99531 185.416587-294.9387 311.5117-389.598209C973.201195 15.186859 1120.613659-37.662804 1120.613659 130.507625c0 33.585922-19.256156 282.139188-30.550067 322.490837-39.257528 140.290246-182.310572 176.071995-309.558589 154.41522 222.42709 37.856218 279.010418 163.249727 156.812047 288.643236-232.078871 238.146788-333.564786-59.751918-359.580981-136.084421-4.767107-13.994134-6.997067-20.5399-7.031199-14.972585-0.032236-5.567314-2.262195 0.978452-7.029303 14.972585-26.004818 76.332502-127.488837 374.238793-359.580981 136.084421-122.200268-125.393509-65.618836-250.794603 156.812047-288.643236-127.251809 21.656776-270.306749-14.12687-309.558589-154.41522C40.050341 412.643021 20.797977 164.089755 20.797977 130.507625c0-168.170429 147.416256-115.320766 238.393297-47.016877z" fill="#1185FE" p-id="2388"></path></svg>