<?xml version="1.0" standalone="no"?><!DOCTYPE svg PUBLIC "-//W3C//DTD SVG 1.1//EN" "http://www.w3.org/Graphics/SVG/1.1/DTD/svg11.dtd"><svg t="1755076307662" class="icon" viewBox="0 0 1024 1024" version="1.1" xmlns="http://www.w3.org/2000/svg" p-id="3365" xmlns:xlink="http://www.w3.org/1999/xlink" width="48" height="48"><path d="M638.71797219 34.18684531L105.92649687 73.4182175C62.98318437 77.13015781 48.00742345 105.12970999 48.00742345 138.69717313v582.32668218c0 26.14358156 9.34385062 48.51122345 31.77549186 78.39874594l125.24599594 162.36540188c20.57567063 26.14358156 39.26337187 31.74349219 78.55874344 29.88752249l618.71010093-37.34340281c52.31916281-3.71194031 67.29492281-27.99955219 67.29492282-69.05489531V230.15170999c0-21.21566062-8.41586531-27.3275625-33.18346875-45.43927312a1495.01607937 1495.01607937 0 0 1-4.2239325-3.07195124L762.10799844 62.18639657C720.95665625 32.36287437 704.15692531 28.58693469 638.71797219 34.18684531zM297.60343063 219.43188125c-50.52719156 3.39194531-61.98300844 4.15993312-90.68654907-19.10369437l-72.95883281-57.85507407c-7.42388156-7.48788-3.67994156-16.83173062 14.97576-18.68770125l512.21580469-37.31140312c42.97531219-3.74394 65.40695344 11.19982125 82.23868406 24.25561218l87.87059437 63.48698438c3.74394 1.85597063 13.05579094 13.02379125 1.85597063 13.02379125l-528.98353688 31.74349219-6.527895 0.44799281zM238.6923725 879.67731687V323.52621594c0-24.28761094 7.45588031-35.48743219 29.8875225-37.3754025l607.51027969-35.4554325c20.60767031-1.85597063 29.95152094 11.19982125 29.95152094 35.4554325v552.43916156c0 24.28761094-3.74394 44.83128281-37.43940094 46.6872525l-581.33469938 33.59946281c-33.63146156 1.85597063-48.57522281-9.31185094-48.57522281-39.19937344z m573.91081781-526.32757874c3.71194031 16.79973094 0 33.59946281-16.86373031 35.51943186l-28.03155094 5.53591126v410.61743063c-24.31961062 13.05579094-46.71925219 20.51167219-65.40695344 20.51167125-29.91952125 0-37.43940094-9.34385062-59.83904343-37.31140313l-183.22906782-287.41940062v278.07555093l57.98307188 13.08779063s0 33.59946281-46.78325156 33.59946187l-128.95793625 7.45588125c-3.71194031-7.48788 0-26.14358156 13.11979031-29.85552281l33.59946187-9.31185094v-367.67411718l-46.71925218-3.77593969c-3.71194031-16.79973094 5.59991063-41.05534313 31.80749062-42.91131375l138.3337875-9.3438497 190.68494906 291.19534032v-257.59587843l-48.63922218-5.56791094c-3.71194031-20.57567063 11.19982125-35.48743219 29.91952125-37.34340188l129.02193562-7.48788093z" fill="#000000" p-id="3366"></path></svg>